<?xml version="1.0" encoding="utf-8"?>
<!-- Generator: Adobe Illustrator 25.0.1, SVG Export Plug-In . SVG Version: 6.00 Build 0)  -->
<svg version="1.1" id="Layer_1" xmlns="http://www.w3.org/2000/svg" xmlns:xlink="http://www.w3.org/1999/xlink" x="0px" y="0px"
	 viewBox="0 0 2500 1339" style="enable-background:new 0 0 2500 1339;" xml:space="preserve">
<style type="text/css">
	.st0{fill:#E63129;}
</style>
<path class="st0" d="M683.5,130.1c-9,1.4-17.6,34.4-35,51.7c-12.7,12.4-28.5,11.7-36.9,27c-3.2,5.7-2.2,15.5-5.8,24.9
	c-7.1,18.8-32,20.5-32,41c-0.1,22.1,20.8,26.4,38.9,42.1c14.1,12.6,15.5,21.4,32.6,27.5c14.6,5,36.3-11.3,55.8-5.4
	c16.1,4.8,31.4,8.2,35,24.7c3.2,15.2-0.2,38.8-19.7,36c-6.6-0.7-35-10.3-70-6.6c-42.2,4.8-90.3,18.6-95,65.6
	c-2.6,26.3,29.9,57.3,61.3,51c21.7-4.3,11.4-29.9,23.3-42.3c15.5-15.9,103.3,55.6,184.9,55.6c34.4,0,59.9-8.7,85.3-35.3
	c2.4-2,5.3-6.4,8.9-6.6c3.5,0.3,9.5,3.7,11.5,5.1c65.7,52.8,115.4,158.8,357,160c34,0.2,72.7,16.4,104.3,45.2
	c28.2,26.1,44.7,66.6,60.7,107.7c24.2,61.7,67.5,121.8,133.2,188.6c3.6,3.6,57.7,45.6,62,48.8c0.7,0.4,4.7,9.9,3.3,15.2
	c-1.6,40.1-7.4,156.5,79.4,161.8c21.2,1.1,15.7-13.9,15.7-24.1c0-20.3-3.8-40.4,7-61.2c14.6-28.6-31-41.7-29.7-103.5
	c0.9-46-37.7-38.2-57.4-73.3c-11.3-20.3-21.4-31.1-20.6-56c4.4-139.9-29.8-231.8-46.8-254.4c-13.3-17-24.3-23.8-12.1-31.7
	c72.5-47.9,88.9-92.4,88.9-92.4c38.5-90.6,73.2-173.3,121-209.7c9.6-7.5,34.3-25.9,49.5-33.2c44.6-21,68.1-33.7,81-46.4
	c20.5-20,36.7-61.6,17-86.9c-24.4-31.2-66.7-6.4-85.3,4.6c-133.2,79.1-152.9,218.6-199,298.7c-36.8,64-96.7,111-150.2,114.8
	c-40.1,3-83.4-5.1-126.5-24c-104.7-45.9-162.1-105.2-175.6-115.7c-28.1-21.7-246.6-236.2-423.6-244.9c0,0-22-44-27.5-44.7
	c-12.9-1.6-26.2,26.3-35.7,29.5C707.5,161.9,692.5,128.7,683.5,130.1"/>
</svg>
