<svg xmlns="http://www.w3.org/2000/svg" width="20.142" height="20.142" viewBox="0 0 20.142 20.142">
  <path id="Union_2" data-name="Union 2" d="M-2744.767-1264.089l-4.95-4.95-4.949,4.95a3,3,0,0,1-4.243,0,3,3,0,0,1,0-4.243l4.95-4.95-4.95-4.95a3,3,0,0,1,0-4.243,3,3,0,0,1,4.243,0l4.949,4.95,4.95-4.95a3,3,0,0,1,4.242,0,3,3,0,0,1,0,4.243l-4.95,4.95,4.95,4.95a3,3,0,0,1,0,4.243,2.992,2.992,0,0,1-2.121.878A2.991,2.991,0,0,1-2744.767-1264.089Z" transform="translate(2759.788 1283.353)" fill="#dcdcdc"/>
</svg>
