<svg xmlns="http://www.w3.org/2000/svg" width="22.694" height="26.808" viewBox="0 0 22.694 26.808">
  <path id="Icon_awesome-paypal" data-name="Icon awesome-paypal" d="M6.585,17.476C6.378,18.611,5.557,23.9,5.314,25.4c-.018.106-.059.148-.177.148H.727a.718.718,0,0,1-.715-.822L3.476,2.739a1.2,1.2,0,0,1,1.182-1c9,0,9.76-.219,12.059.674,3.553,1.377,3.878,4.7,2.6,8.294-1.271,3.7-4.286,5.291-8.282,5.338C8.471,16.087,6.928,15.632,6.585,17.476ZM21.109,8.97c-.106-.077-.148-.106-.177.077a13.835,13.835,0,0,1-.52,1.986c-2.359,6.727-8.9,6.142-12.089,6.142a.6.6,0,0,0-.644.556c-1.336,8.3-1.6,10.031-1.6,10.031a.629.629,0,0,0,.627.763h3.754a1.06,1.06,0,0,0,1.029-.881c.041-.319-.065.361.851-5.4.272-1.3.845-1.165,1.732-1.165,4.2,0,7.472-1.7,8.447-6.638C22.9,12.387,22.788,10.223,21.109,8.97Z" transform="translate(-0.005 -1.717)" fill="#26f8e2"/>
</svg>
