<svg xmlns="http://www.w3.org/2000/svg" width="28.984" height="31.46" viewBox="0 0 28.984 31.46">
  <path id="Icon_awesome-shopping-bag" data-name="Icon awesome-shopping-bag" d="M21.988,9.519v-1.9a7.821,7.821,0,0,0-8-7.615A7.821,7.821,0,0,0,6,7.615v1.9H0V25.7A4.883,4.883,0,0,0,5,30.46h17.99a4.883,4.883,0,0,0,5-4.759V9.519ZM9.994,7.615a3.911,3.911,0,0,1,4-3.807,3.911,3.911,0,0,1,4,3.807v1.9h-8Zm9.994,7.139a1.429,1.429,0,1,1,1.5-1.428A1.465,1.465,0,0,1,19.989,14.754ZM8,14.754a1.429,1.429,0,1,1,1.5-1.428A1.465,1.465,0,0,1,8,14.754Z" transform="translate(0.5 0.5)" fill="none" stroke="#000" stroke-width="1"/>
</svg>
